<svg width="17" height="17" viewBox="0 0 17 17" fill="none" xmlns="http://www.w3.org/2000/svg">
<mask id="mask0_61_2251" style="mask-type:alpha" maskUnits="userSpaceOnUse" x="1" y="1" width="15" height="15">
<path fill-rule="evenodd" clip-rule="evenodd" d="M15.3372 7.22727H8.66279V9.93182H12.5047C12.1465 11.65 10.6488 12.6364 8.66279 12.6364C6.3186 12.6364 4.43023 10.7909 4.43023 8.5C4.43023 6.20909 6.3186 4.36364 8.66279 4.36364C9.67209 4.36364 10.5837 4.71364 11.3 5.28636L13.3837 3.25C12.114 2.16818 10.486 1.5 8.66279 1.5C4.6907 1.5 1.5 4.61818 1.5 8.5C1.5 12.3818 4.6907 15.5 8.66279 15.5C12.2442 15.5 15.5 12.9545 15.5 8.5C15.5 8.08636 15.4349 7.64091 15.3372 7.22727Z" fill="white"/>
</mask>
<g mask="url(#mask0_61_2251)">
<path d="M0.848877 12.6364V4.36364L6.38376 8.5L0.848877 12.6364Z" fill="#FBBC05"/>
</g>
<mask id="mask1_61_2251" style="mask-type:alpha" maskUnits="userSpaceOnUse" x="1" y="1" width="15" height="15">
<path fill-rule="evenodd" clip-rule="evenodd" d="M15.3372 7.22727H8.66279V9.93182H12.5047C12.1465 11.65 10.6488 12.6364 8.66279 12.6364C6.3186 12.6364 4.43023 10.7909 4.43023 8.5C4.43023 6.20909 6.3186 4.36364 8.66279 4.36364C9.67209 4.36364 10.5837 4.71364 11.3 5.28636L13.3837 3.25C12.114 2.16818 10.486 1.5 8.66279 1.5C4.6907 1.5 1.5 4.61818 1.5 8.5C1.5 12.3818 4.6907 15.5 8.66279 15.5C12.2442 15.5 15.5 12.9545 15.5 8.5C15.5 8.08636 15.4349 7.64091 15.3372 7.22727Z" fill="white"/>
</mask>
<g mask="url(#mask1_61_2251)">
<path d="M0.848877 4.36364L6.38376 8.5L8.66283 6.55909L16.4768 5.31819V0.86364H0.848877V4.36364Z" fill="#EA4335"/>
</g>
<mask id="mask2_61_2251" style="mask-type:alpha" maskUnits="userSpaceOnUse" x="1" y="1" width="15" height="15">
<path fill-rule="evenodd" clip-rule="evenodd" d="M15.3372 7.22727H8.66279V9.93182H12.5047C12.1465 11.65 10.6488 12.6364 8.66279 12.6364C6.3186 12.6364 4.43023 10.7909 4.43023 8.5C4.43023 6.20909 6.3186 4.36364 8.66279 4.36364C9.67209 4.36364 10.5837 4.71364 11.3 5.28636L13.3837 3.25C12.114 2.16818 10.486 1.5 8.66279 1.5C4.6907 1.5 1.5 4.61818 1.5 8.5C1.5 12.3818 4.6907 15.5 8.66279 15.5C12.2442 15.5 15.5 12.9545 15.5 8.5C15.5 8.08636 15.4349 7.64091 15.3372 7.22727Z" fill="white"/>
</mask>
<g mask="url(#mask2_61_2251)">
<path d="M0.848877 12.6364L10.6163 5.31819L13.1884 5.63637L16.4768 0.86364V16.1364H0.848877V12.6364Z" fill="#34A853"/>
</g>
<mask id="mask3_61_2251" style="mask-type:alpha" maskUnits="userSpaceOnUse" x="1" y="1" width="15" height="15">
<path fill-rule="evenodd" clip-rule="evenodd" d="M15.3372 7.22727H8.66279V9.93182H12.5047C12.1465 11.65 10.6488 12.6364 8.66279 12.6364C6.3186 12.6364 4.43023 10.7909 4.43023 8.5C4.43023 6.20909 6.3186 4.36364 8.66279 4.36364C9.67209 4.36364 10.5837 4.71364 11.3 5.28636L13.3837 3.25C12.114 2.16818 10.486 1.5 8.66279 1.5C4.6907 1.5 1.5 4.61818 1.5 8.5C1.5 12.3818 4.6907 15.5 8.66279 15.5C12.2442 15.5 15.5 12.9545 15.5 8.5C15.5 8.08636 15.4349 7.64091 15.3372 7.22727Z" fill="white"/>
</mask>
<g mask="url(#mask3_61_2251)">
<path d="M16.4766 16.1364L6.38362 8.5L5.0813 7.54546L16.4766 4.36364V16.1364Z" fill="#4285F4"/>
</g>
</svg>
