<svg width="17" height="16" viewBox="0 0 17 16" fill="none" xmlns="http://www.w3.org/2000/svg">
<path d="M6.59044 1C5.88701 1.00052 5.31772 1.57044 5.31824 2.27273C5.31772 2.97501 5.88753 3.54494 6.59096 3.54545H7.86369V2.27325C7.86421 1.57096 7.2944 1.00104 6.59044 1C6.59096 1 6.59096 1 6.59044 1" fill="#36C5F0"/>
<path d="M6.49976 4.81818H2.86388C2.11007 4.8187 1.49944 5.3885 1.5 6.09064C1.49889 6.79278 2.10951 7.36259 2.86332 7.36363H6.49976C7.25357 7.36311 7.86419 6.7933 7.86364 6.09116C7.86419 5.3885 7.25357 4.8187 6.49976 4.81818Z" fill="#36C5F0"/>
<path d="M15.5 6.09064C15.5006 5.3885 14.9307 4.8187 14.2273 4.81818C13.5239 4.8187 12.9541 5.3885 12.9546 6.09064V7.36363H14.2273C14.9307 7.36311 15.5006 6.7933 15.5 6.09064Z" fill="#2EB67D"/>
<path d="M11.6818 5.99972V2.36336C11.6823 1.61162 11.1129 1.00111 10.4093 1C9.70577 1.00056 9.13583 1.61106 9.13635 2.36336V5.99972C9.13531 6.75202 9.70525 7.36252 10.4088 7.36364C11.1124 7.36308 11.6823 6.75257 11.6818 5.99972Z" fill="#2EB67D"/>
<path d="M10.4091 15C11.1125 14.9995 11.6823 14.4295 11.6818 13.7273C11.6823 13.025 11.1125 12.455 10.4091 12.4545H9.13635V13.7273C9.13583 14.429 9.70565 14.9989 10.4091 15Z" fill="#ECB22E"/>
<path d="M10.4997 11.1818H14.1361C14.8899 11.1813 15.5005 10.6115 15.5 9.90934C15.5011 9.2072 14.8905 8.63739 14.1367 8.63635H10.5002C9.74642 8.63687 9.1358 9.20668 9.13635 9.90882C9.1358 10.6115 9.74586 11.1813 10.4997 11.1818Z" fill="#ECB22E"/>
<path d="M1.5 9.90908C1.49948 10.6114 2.0693 11.1813 2.77273 11.1818C3.47616 11.1813 4.04597 10.6114 4.04545 9.90908V8.63635H2.77273C2.0693 8.63687 1.49948 9.2068 1.5 9.90908Z" fill="#E01E5A"/>
<path d="M5.31824 9.99927V13.636C5.3172 14.3883 5.88713 14.9989 6.5907 15C7.29428 14.9994 7.86421 14.3889 7.86369 13.6365V10.0004C7.86473 9.24803 7.2948 8.63746 6.59122 8.63635C5.88713 8.63635 5.31772 9.24691 5.31824 9.99927C5.31824 9.99983 5.31824 9.99927 5.31824 9.99927Z" fill="#E01E5A"/>
</svg>
