<svg width="40" height="40" viewBox="0 0 40 40" fill="none" xmlns="http://www.w3.org/2000/svg">
<rect width="40" height="40" rx="20" fill="#3E7EFF"/>
<mask id="mask0_65_3884" style="mask-type:alpha" maskUnits="userSpaceOnUse" x="0" y="0" width="40" height="40">
<rect width="40" height="40" rx="20" fill="white"/>
</mask>
<g mask="url(#mask0_65_3884)">
<rect width="40" height="40" fill="url(#paint0_radial_65_3884)"/>
<path d="M20.0813 8.75C20.0813 8.85287 20.0813 8.95574 20.0813 9.05861C20.0813 12.8648 20.0813 16.7224 20.0813 20.5286C20.0813 20.5801 20.0813 20.6829 20.0813 20.7344C20.0813 20.7858 20.0298 20.8372 19.9784 20.8372C19.6184 20.9916 19.3098 21.1459 18.9497 21.3002C18.4868 21.5059 17.9724 21.7116 17.5095 21.9688C16.9437 22.226 16.378 22.4832 15.8122 22.7403C15.3492 22.9461 14.8863 23.1518 14.4234 23.3576C13.8576 23.6147 13.2918 23.8719 12.7261 24.1291C12.2631 24.3348 11.8002 24.5406 11.2859 24.7978C10.9258 24.9521 10.5144 25.1578 10.1543 25.3121C10.1029 25.3121 10.1029 25.3635 10.0514 25.3121C10.0514 25.3121 10.0514 25.3121 10 25.3121C10.1543 25.0549 10.3086 24.8492 10.4629 24.592C11.2859 23.2033 12.1603 21.8145 12.9832 20.4258C13.8576 18.9341 14.7835 17.4425 15.6579 15.9509C16.4808 14.5622 17.3038 13.1734 18.1267 11.8361C18.744 10.8074 19.3612 9.83014 19.927 8.80144C20.0298 8.80144 20.0298 8.75 20.0813 8.75C20.0813 8.75 20.0298 8.75 20.0813 8.75Z" fill="white"/>
<path d="M10.0515 25.312C10.0515 25.312 10.1029 25.312 10.0515 25.312C10.1029 25.312 10.1029 25.312 10.0515 25.312C10.0515 25.3634 10.0515 25.3634 10.0515 25.312Z" fill="#808080"/>
<path d="M10.1028 25.3635C10.1028 25.3121 10.1028 25.3121 10.1028 25.3635C10.6171 25.1064 11.1315 24.9006 11.6458 24.6434C12.3145 24.3348 12.9831 24.0262 13.6518 23.7176C14.1662 23.4604 14.6805 23.2547 15.1949 22.9975C15.9149 22.6375 16.6865 22.3289 17.4066 21.9688C17.9209 21.7631 18.4353 21.5059 18.9496 21.3002C19.3097 21.1459 19.6697 20.9916 20.0298 20.7858C20.0812 20.7858 20.0812 20.7344 20.1326 20.7344C20.1326 20.7344 20.1326 20.7344 20.1326 20.7858C20.1326 20.8372 20.1326 20.8372 20.1326 20.8887C20.1326 24.2834 20.1326 27.6781 20.1326 31.0728C20.1326 31.1243 20.1326 31.1757 20.1326 31.2271C20.0812 31.2786 20.0812 31.2271 20.0298 31.2271C19.8755 31.1243 19.7211 31.0728 19.6183 30.97C16.4807 29.1183 13.3432 27.2666 10.2057 25.415C10.1542 25.3635 10.1028 25.3635 10.1028 25.3635Z" fill="#D7D7D7"/>
<path d="M20.0813 20.7859C20.0813 20.7345 20.0813 20.683 20.0813 20.683C20.0813 16.774 20.0813 12.8135 20.0813 8.90438C20.0813 8.85295 20.0813 8.80151 20.0813 8.80151C23.3731 14.2536 26.665 19.7058 29.9568 25.1579C30.0083 25.2093 30.0597 25.2607 30.0597 25.3122C29.854 25.2093 29.6482 25.1064 29.3911 25.0036C29.1339 24.9007 28.8767 24.7464 28.6195 24.6435C28.4652 24.5921 28.3109 24.4892 28.1052 24.4378C27.848 24.3349 27.5394 24.1806 27.2822 24.0777C27.1279 24.0263 26.9736 23.9234 26.8193 23.872C26.4593 23.7177 26.0992 23.5634 25.7392 23.4091C25.5334 23.3062 25.3791 23.2548 25.1734 23.1519C24.9162 23.049 24.659 22.8947 24.4018 22.7919C24.2475 22.7404 24.0932 22.6376 23.9389 22.5861C23.5789 22.4318 23.2188 22.2775 22.8588 22.1232C22.6531 22.0203 22.4987 21.9689 22.293 21.866C22.0358 21.7632 21.7787 21.6089 21.5215 21.506C21.3672 21.4031 21.1614 21.3517 21.0071 21.2488C20.6985 21.0945 20.3899 20.9402 20.0813 20.7859Z" fill="#EDEDED"/>
</g>
<defs>
<radialGradient id="paint0_radial_65_3884" cx="0" cy="0" r="1" gradientUnits="userSpaceOnUse" gradientTransform="translate(7.61527 33.9918) rotate(-29.2168) scale(86.1111)">
<stop stop-color="#7A52F4"/>
<stop offset="1" stop-color="#F20089"/>
</radialGradient>
</defs>
</svg>
